<svg version="1.1" id="Layer_1" xmlns="http://www.w3.org/2000/svg" xmlns:xlink="http://www.w3.org/1999/xlink" x="0px" y="0px"
	 width="100%" viewBox="0 0 71 99" enable-background="new 0 0 71 99" xml:space="preserve">
<path fill="#A8826E" opacity="1.000000" stroke="none" 
	d="
M41.000000,100.000000 
	C27.333334,100.000000 14.166667,100.000000 1.000000,100.000000 
	C1.000000,67.000000 1.000000,34.000000 1.000000,1.000000 
	C24.666666,1.000000 48.333332,1.000000 72.000000,1.000000 
	C72.000000,34.000000 72.000000,67.000000 72.000000,100.000000 
	C61.833332,100.000000 51.666668,100.000000 41.000000,100.000000 
M40.875568,43.361694 
	C39.406143,41.149239 39.518677,39.401897 41.798115,37.576424 
	C44.018135,35.798531 45.813770,33.490723 47.795738,31.415577 
	C47.732323,31.402414 47.668907,31.389250 47.605488,31.376085 
	C41.623081,37.218876 35.640671,43.061665 29.768751,48.796543 
	C33.321167,48.763081 35.150944,42.338928 40.298923,45.656815 
	C44.847347,50.471939 49.395775,55.287060 53.990406,61.004089 
	C53.994820,63.334148 53.665043,65.732681 54.123390,67.969727 
	C54.419476,69.414841 55.859203,71.724113 56.805126,71.733368 
	C59.741741,71.762085 63.791035,71.833748 65.315712,70.074715 
	C66.809250,68.351616 66.217537,64.282043 65.517258,61.500065 
	C65.284286,60.574524 61.855186,60.534035 59.937328,59.929897 
	C57.937820,59.300034 55.998753,58.478294 53.764832,57.150303 
	C49.515915,52.764568 45.267002,48.378834 40.875568,43.361694 
M52.844112,26.936617 
	C56.872757,25.145994 60.901405,23.355373 65.541084,21.293163 
	C67.550285,12.216600 65.092720,9.871301 55.091167,12.986364 
	C55.084400,17.627676 55.579437,22.629688 50.312950,26.203949 
	C49.457695,27.233873 48.602440,28.263800 47.747181,29.293724 
	C48.125854,29.660694 48.504528,30.027664 48.883202,30.394632 
	C49.969555,29.293243 51.055908,28.191854 52.844112,26.936617 
M21.338116,58.408195 
	C22.613052,56.825455 23.887989,55.242714 25.162926,53.659977 
	C24.782919,53.238598 24.402914,52.817223 24.022909,52.395847 
	C19.818182,59.040493 13.030197,59.748871 6.031125,60.395351 
	C6.031125,63.506638 5.778152,66.183006 6.147397,68.770576 
	C6.310170,69.911247 7.709834,71.730263 8.594746,71.758194 
	C11.665250,71.855087 14.756282,71.301476 18.521093,70.757454 
	C23.287434,67.664108 21.012585,63.087563 21.338116,58.408195 
z"/>
<path fill="#F2CAD2" opacity="1.000000" stroke="none" 
	d="
M17.839504,70.995331 
	C14.756282,71.301476 11.665250,71.855087 8.594746,71.758194 
	C7.709834,71.730263 6.310170,69.911247 6.147397,68.770576 
	C5.778152,66.183006 6.031125,63.506638 6.031125,60.395351 
	C13.030197,59.748871 19.818182,59.040493 24.022909,52.395847 
	C24.402914,52.817223 24.782919,53.238598 25.162926,53.659977 
	C23.887989,55.242714 22.613052,56.825455 20.843292,58.881760 
	C16.170919,62.515137 18.803720,67.142899 17.839504,70.995331 
M15.460032,68.802132 
	C15.630058,68.012596 16.063503,67.168861 15.914572,66.444946 
	C15.616320,64.995216 15.299150,62.668087 14.450968,62.398506 
	C12.749363,61.857689 10.262324,61.849510 8.916061,62.790173 
	C7.970837,63.450615 7.793554,66.240005 8.295759,67.735306 
	C9.469199,71.229187 12.376489,69.963539 15.460032,68.802132 
z"/>
<path fill="#F3CAD1" opacity="1.000000" stroke="none" 
	d="
M54.033260,57.740444 
	C55.998753,58.478294 57.937820,59.300034 59.937328,59.929897 
	C61.855186,60.534035 65.284286,60.574524 65.517258,61.500065 
	C66.217537,64.282043 66.809250,68.351616 65.315712,70.074715 
	C63.791035,71.833748 59.741741,71.762085 56.805126,71.733368 
	C55.859203,71.724113 54.419476,69.414841 54.123390,67.969727 
	C53.665043,65.732681 53.994820,63.334148 53.984589,60.159706 
	C53.996933,58.790359 54.015099,58.265404 54.033260,57.740444 
M61.129162,69.830391 
	C65.056389,68.336563 64.053886,65.431068 63.476360,62.389656 
	C60.996181,62.389656 58.786842,62.389656 55.993359,62.389656 
	C56.601517,65.766426 54.114746,70.098518 61.129162,69.830391 
z"/>
<path fill="#F4CCD1" opacity="1.000000" stroke="none" 
	d="
M50.917122,25.856499 
	C55.579437,22.629688 55.084400,17.627676 55.091167,12.986364 
	C65.092720,9.871301 67.550285,12.216600 65.541084,21.293163 
	C60.901405,23.355373 56.872757,25.145994 52.281555,26.815348 
	C51.451710,26.414885 51.184414,26.135691 50.917122,25.856499 
M56.385262,14.911090 
	C56.264606,15.721661 55.893234,16.594582 56.076038,17.329687 
	C56.444614,18.811796 56.781422,21.084665 57.738773,21.453146 
	C59.158127,21.999453 61.610096,21.735394 62.682827,20.771040 
	C63.708290,19.849184 64.125008,16.286493 63.788429,16.133726 
	C61.693859,15.183023 59.312283,14.864653 56.385262,14.911090 
z"/>
<path fill="#EFC8CD" opacity="1.000000" stroke="none" 
	d="
M39.973343,45.082520 
	C35.150944,42.338928 33.321167,48.763081 29.768751,48.796543 
	C35.640671,43.061665 41.623081,37.218876 47.605488,31.376085 
	C47.668907,31.389250 47.732323,31.402414 47.795738,31.415577 
	C45.813770,33.490723 44.018135,35.798531 41.798115,37.576424 
	C39.518677,39.401897 39.406143,41.149239 40.766037,43.852505 
	C40.428783,44.589714 40.201061,44.836117 39.973343,45.082520 
z"/>
<path fill="#E4BDBE" opacity="1.000000" stroke="none" 
	d="
M40.136131,45.369667 
	C40.201061,44.836117 40.428783,44.589714 40.837296,44.168205 
	C45.267002,48.378834 49.515915,52.764568 53.899048,57.445374 
	C54.015099,58.265404 53.996933,58.790359 53.961483,59.708752 
	C49.395775,55.287060 44.847347,50.471939 40.136131,45.369667 
z"/>
<path fill="#A78278" opacity="1.000000" stroke="none" 
	d="
M18.180298,70.876389 
	C18.803720,67.142899 16.170919,62.515137 20.674419,59.171478 
	C21.012585,63.087563 23.287434,67.664108 18.180298,70.876389 
z"/>
<path fill="#EFC8CD" opacity="1.000000" stroke="none" 
	d="
M50.615036,26.030224 
	C51.184414,26.135691 51.451710,26.414885 51.930634,26.892271 
	C51.055908,28.191854 49.969555,29.293243 48.883202,30.394632 
	C48.504528,30.027664 48.125854,29.660694 47.747181,29.293724 
	C48.602440,28.263800 49.457695,27.233873 50.615036,26.030224 
z"/>
<path fill="#A78272" opacity="1.000000" stroke="none" 
	d="
M15.168863,69.110863 
	C12.376489,69.963539 9.469199,71.229187 8.295759,67.735306 
	C7.793554,66.240005 7.970837,63.450615 8.916061,62.790173 
	C10.262324,61.849510 12.749363,61.857689 14.450968,62.398506 
	C15.299150,62.668087 15.616320,64.995216 15.914572,66.444946 
	C16.063503,67.168861 15.630058,68.012596 15.168863,69.110863 
z"/>
<path fill="#A78271" opacity="1.000000" stroke="none" 
	d="
M60.719597,69.881897 
	C54.114746,70.098518 56.601517,65.766426 55.993359,62.389656 
	C58.786842,62.389656 60.996181,62.389656 63.476360,62.389656 
	C64.053886,65.431068 65.056389,68.336563 60.719597,69.881897 
z"/>
<path fill="#A78274" opacity="1.000000" stroke="none" 
	d="
M56.705566,14.623848 
	C59.312283,14.864653 61.693859,15.183023 63.788429,16.133726 
	C64.125008,16.286493 63.708290,19.849184 62.682827,20.771040 
	C61.610096,21.735394 59.158127,21.999453 57.738773,21.453146 
	C56.781422,21.084665 56.444614,18.811796 56.076038,17.329687 
	C55.893234,16.594582 56.264606,15.721661 56.705566,14.623848 
z"/>
</svg>