<svg width="442" height="62" viewBox="0 0 442 62" fill="none" xmlns="http://www.w3.org/2000/svg">
<path d="M121.928 7.88H141.8C154.856 7.88 161.384 12.512 161.384 21.776C161.384 24.848 160.472 27.32 158.648 29.192C156.872 31.064 154.352 32.192 151.088 32.576C155.12 32.96 158.192 34.232 160.304 36.392C162.464 38.504 163.544 41.336 163.544 44.888C163.544 49.592 161.888 53.12 158.576 55.472C155.312 57.824 150.536 59 144.248 59H121.928V7.88ZM143.744 50.072C146.48 50.072 148.616 49.52 150.152 48.416C151.736 47.312 152.528 45.704 152.528 43.592C152.528 41.48 151.736 39.848 150.152 38.696C148.568 37.544 146.432 36.968 143.744 36.968H132.872V50.072H143.744ZM141.512 29.048C144.248 29.048 146.408 28.52 147.992 27.464C149.576 26.408 150.368 24.896 150.368 22.928C150.368 18.848 147.416 16.808 141.512 16.808H132.872V29.048H141.512ZM171.977 20.408H182.201L182.417 28.184C183.185 25.448 184.313 23.48 185.801 22.28C187.289 21.032 189.233 20.408 191.633 20.408H195.161V29.336H191.633C188.561 29.336 186.305 29.96 184.865 31.208C183.473 32.456 182.777 34.496 182.777 37.328V59H171.977V20.408ZM201.579 20.408H212.379V59H201.579V20.408ZM201.363 7.016H212.523V15.656H201.363V7.016ZM231.909 59C225.189 59 221.829 55.64 221.829 48.92V7.88H232.629V47.768C232.629 48.872 232.869 49.688 233.349 50.216C233.877 50.696 234.669 50.936 235.725 50.936H238.317V59H231.909ZM261.451 59.864C255.691 59.864 251.227 58.688 248.059 56.336C244.939 53.936 243.235 50.768 242.947 46.832L253.891 46.472C254.563 50.312 257.107 52.232 261.523 52.232C263.491 52.232 265.003 51.92 266.059 51.296C267.115 50.624 267.643 49.664 267.643 48.416C267.643 47.552 267.427 46.856 266.995 46.328C266.611 45.8 265.843 45.344 264.691 44.96C263.587 44.528 261.955 44.144 259.795 43.808C255.715 43.136 252.523 42.32 250.219 41.36C247.915 40.352 246.283 39.104 245.323 37.616C244.363 36.128 243.883 34.232 243.883 31.928C243.883 28.136 245.347 25.136 248.275 22.928C251.203 20.672 255.451 19.544 261.019 19.544C266.251 19.544 270.331 20.744 273.259 23.144C276.235 25.544 277.963 28.76 278.443 32.792L267.643 33.224C267.403 31.304 266.683 29.816 265.483 28.76C264.331 27.704 262.795 27.176 260.875 27.176C259.003 27.176 257.539 27.56 256.483 28.328C255.475 29.096 254.971 30.152 254.971 31.496C254.971 32.888 255.499 33.944 256.555 34.664C257.611 35.336 259.483 35.864 262.171 36.248C266.299 36.824 269.563 37.616 271.963 38.624C274.363 39.632 276.091 40.904 277.147 42.44C278.203 43.976 278.731 45.896 278.731 48.2C278.731 51.896 277.195 54.776 274.123 56.84C271.051 58.856 266.827 59.864 261.451 59.864ZM300.391 59C296.407 59 293.479 58.088 291.607 56.264C289.735 54.392 288.799 51.44 288.799 47.408V28.472H282.607V20.408H288.799V11.336H299.599V20.408H309.751V28.472H299.599V46.112C299.599 47.936 299.983 49.208 300.751 49.928C301.519 50.6 302.719 50.936 304.351 50.936H309.751V59H300.391ZM328.202 59.864C324.122 59.864 320.834 58.928 318.338 57.056C315.89 55.184 314.666 52.616 314.666 49.352C314.666 46.04 315.698 43.448 317.762 41.576C319.826 39.656 323.018 38.264 327.338 37.4L339.794 34.952C339.794 29.912 337.586 27.392 333.17 27.392C329.186 27.392 326.834 29.24 326.114 32.936L315.314 32.432C316.034 28.208 317.93 25.016 321.002 22.856C324.074 20.648 328.13 19.544 333.17 19.544C338.93 19.544 343.274 20.912 346.202 23.648C349.13 26.384 350.594 30.392 350.594 35.672V48.848C350.594 49.904 350.762 50.624 351.098 51.008C351.434 51.392 351.986 51.584 352.754 51.584H353.834V59C352.874 59.288 351.578 59.432 349.946 59.432C345.146 59.432 342.338 57.344 341.522 53.168C340.514 55.232 338.834 56.864 336.482 58.064C334.178 59.264 331.418 59.864 328.202 59.864ZM330.794 52.448C333.53 52.448 335.714 51.656 337.346 50.072C338.978 48.488 339.794 46.328 339.794 43.592V41.72L331.01 43.592C327.506 44.312 325.754 45.896 325.754 48.344C325.754 49.64 326.186 50.648 327.05 51.368C327.914 52.088 329.162 52.448 330.794 52.448ZM377.703 59.864C373.767 59.864 370.311 59.048 367.335 57.416C364.407 55.736 362.127 53.384 360.495 50.36C358.911 47.288 358.119 43.736 358.119 39.704C358.119 35.672 358.911 32.144 360.495 29.12C362.127 26.048 364.407 23.696 367.335 22.064C370.311 20.384 373.767 19.544 377.703 19.544C382.887 19.544 387.183 20.888 390.591 23.576C393.999 26.264 395.991 29.96 396.567 34.664L385.407 35.168C385.071 32.816 384.207 31.016 382.815 29.768C381.471 28.52 379.767 27.896 377.703 27.896C375.015 27.896 372.927 28.928 371.439 30.992C369.951 33.056 369.207 35.96 369.207 39.704C369.207 43.448 369.951 46.376 371.439 48.488C372.927 50.552 375.015 51.584 377.703 51.584C379.863 51.584 381.615 50.936 382.959 49.64C384.303 48.344 385.119 46.424 385.407 43.88L396.567 44.312C396.039 49.064 394.071 52.856 390.663 55.688C387.255 58.472 382.935 59.864 377.703 59.864ZM402.672 7.88H413.472V36.248L427.8 20.408H440.76L425.784 36.32L441.192 59H429.384L418.8 42.44L413.472 48.128V59H402.672V7.88Z" fill="black"/>
<path d="M0.0100098 61.7617L0.0100098 27.6417H57.39C66.4375 27.6444 75.1134 31.2403 81.51 37.6388C87.9066 44.0372 91.5 52.7143 91.5 61.7617L0.0100098 61.7617Z" fill="#4377FD"/>
<path d="M0 24.1797L0 0.969687L39 0.969687C42.0513 0.964428 45.0738 1.56089 47.8944 2.72495C50.715 3.88901 53.2783 5.59781 55.4378 7.75358C57.5973 9.90935 59.3105 12.4698 60.4794 15.2884C61.6483 18.1069 62.25 21.1283 62.25 24.1797L0 24.1797Z" fill="#4377FD"/>
</svg>
